<?xml version="1.0" encoding="iso-8859-1"?>
<!-- Generator: Adobe Illustrator 19.0.0, SVG Export Plug-In . SVG Version: 6.00 Build 0)  -->
<svg version="1.1" id="Layer_1" xmlns="http://www.w3.org/2000/svg" xmlns:xlink="http://www.w3.org/1999/xlink" x="0px" y="0px"
	 viewBox="0 0 512.001 512.001" width="42px" height="42px" style="enable-background:new 0 0 512.001 512.001; fill: #669bc6;" xml:space="preserve">
<g>
	<g>
		<path d="M502.903,453.413h-4.009c1.516-3.3,2.367-6.965,2.367-10.828v-34.353c0-39.234-25.301-74.316-62.079-86.951l3.907-14.145
			c3.357-12.152-3.799-24.77-15.953-28.128l-11.706-3.233c-5.873-1.622-12.036-0.852-17.359,2.167
			c-5.323,3.019-9.147,7.915-10.769,13.786l-4.889,17.699l-12.836-2.468l4.456-16.131c3.357-12.152-3.799-24.77-15.953-28.128
			l-11.706-3.233c-5.872-1.622-12.036-0.852-17.359,2.167c-5.323,3.019-9.147,7.915-10.769,13.786l-5.684,20.578l-22.845-4.392
			V114.814h10.601c11.468,0,20.797-9.329,20.797-20.797V61.666c0-11.468-9.329-20.797-20.797-20.797h-10.601V26.045
			C289.718,11.684,278.035,0,263.674,0H61.028C46.666,0,34.982,11.684,34.982,26.045V40.87H22.286
			c-11.468,0-20.797,9.329-20.797,20.797v32.352c0,11.468,9.329,20.797,20.797,20.797h12.696v183.077
			c0,5.04,0.303,10.009,0.876,14.897c-0.557,1.058-0.876,2.26-0.876,3.539v126.257c0,4.453,1.125,8.646,3.102,12.316
			c-1.879,1.386-3.102,3.607-3.102,6.121v30.181c0,11.468,9.329,20.797,20.797,20.797h433.936c11.468,0,20.797-9.329,20.797-20.797
			v-30.181C510.511,456.82,507.106,453.413,502.903,453.413z M389.049,342.56l6.121-22.161c0.017-0.058,0.032-0.117,0.049-0.175
			l6.751-24.445c0.539-1.953,1.821-3.587,3.608-4.601c1.179-0.669,2.476-1.01,3.783-1.01c0.675,0,1.352,0.09,2.016,0.275
			l11.706,3.233c4.065,1.122,6.459,5.343,5.336,9.408l-12.92,46.782c-1.122,4.066-5.339,6.462-9.409,5.336l-11.704-3.233
			c-1.954-0.54-3.587-1.821-4.602-3.608C388.771,346.574,388.509,344.514,389.049,342.56z M312.239,354.329l20.677-74.858
			c0.539-1.953,1.821-3.587,3.608-4.601c1.179-0.669,2.476-1.01,3.783-1.01c0.675,0,1.352,0.09,2.016,0.275l11.706,3.233
			c4.065,1.122,6.459,5.343,5.336,9.408l-6.595,23.877c-0.01,0.032-0.018,0.067-0.027,0.099l-14.053,50.882
			c-0.539,1.953-1.821,3.587-3.608,4.601c-1.787,1.014-3.85,1.276-5.8,0.735l-11.706-3.233
			C313.51,362.616,311.116,358.394,312.239,354.329z M308.499,310.713l-10.928,39.565c-3.357,12.152,3.799,24.77,15.953,28.128
			l11.706,3.233c2.011,0.555,4.057,0.83,6.091,0.83c3.905,0,7.768-1.012,11.268-2.998c5.323-3.019,9.147-7.915,10.769-13.786
			l12.156-44.013l12.836,2.467l-3.969,14.368c-1.622,5.871-0.852,12.036,2.168,17.359c3.019,5.323,7.915,9.147,13.787,10.77
			l11.704,3.233c2.03,0.56,4.071,0.828,6.081,0.828c10.028,0,19.253-6.658,22.047-16.781l4.954-17.936
			c30.212,10.795,50.922,39.821,50.922,72.249v34.353c0,5.971-4.857,10.828-10.828,10.828H61.028
			c-5.971,0-10.828-4.857-10.828-10.828v-84.369c21.539,39.886,63.732,67.046,112.151,67.046
			c67.156,0,122.332-52.244,127.037-118.221L308.499,310.713z M215.938,140.708c-14.361,0-26.045,11.684-26.045,26.045v7.673
			c0,14.361,11.685,26.044,26.045,26.044h58.563v15.024h-58.563c-14.361,0-26.045,11.684-26.045,26.045v7.673
			c0,14.362,11.685,26.045,26.045,26.045h58.563v22.633c0,61.84-50.312,112.151-112.152,112.151s-112.15-50.312-112.15-112.151
			V114.815h224.302v25.892H215.938z M274.501,155.925v29.329h-58.563c-5.971,0-10.828-4.857-10.828-10.827v-7.673
			c0-5.971,4.857-10.828,10.828-10.828H274.501z M274.501,230.712v29.33h-58.563c-5.971,0-10.828-4.857-10.828-10.828v-7.673
			c0-5.971,4.857-10.828,10.828-10.828H274.501z M50.199,26.045c0-5.971,4.857-10.828,10.828-10.828h202.646
			c5.971,0,10.828,4.857,10.828,10.828V40.87H50.199V26.045z M42.591,99.597c-0.006,0-0.013,0.001-0.019,0.001H22.286
			c-3.076,0-5.58-2.504-5.58-5.58V61.666c0-3.077,2.504-5.58,5.58-5.58h20.294c0.003,0,0.006,0,0.01,0c0.004,0,0.006,0,0.01,0h239.5
			c0.003,0,0.006,0,0.01,0c0.004,0,0.006,0,0.01,0h18.2c3.076,0,5.58,2.503,5.58,5.58v32.352c0,3.077-2.504,5.58-5.58,5.58h-18.2
			c-0.003,0-0.006,0-0.01,0c-0.004,0-0.006,0-0.01,0H42.61C42.604,99.598,42.597,99.597,42.591,99.597z M495.294,491.203
			c0,3.077-2.503,5.58-5.58,5.58H55.779c-3.077,0-5.58-2.503-5.58-5.58V468.63h10.828h414.187h20.079V491.203z"/>
	</g>
</g>
<g>
	<g>
		<path d="M162.351,315.216c-15.375,0-27.885,12.509-27.885,27.885c0,15.375,12.508,27.885,27.885,27.885
			c15.375,0,27.885-12.509,27.885-27.885C190.236,327.725,177.726,315.216,162.351,315.216z M162.351,355.767
			c-6.985,0-12.668-5.683-12.668-12.668s5.682-12.668,12.668-12.668s12.668,5.683,12.668,12.668S169.336,355.767,162.351,355.767z"
			/>
	</g>
</g>
<g>
</g>
<g>
</g>
<g>
</g>
<g>
</g>
<g>
</g>
<g>
</g>
<g>
</g>
<g>
</g>
<g>
</g>
<g>
</g>
<g>
</g>
<g>
</g>
<g>
</g>
<g>
</g>
<g>
</g>
</svg>
