<svg id="Слой_1" data-name="Слой 1" fill="#669bc6" xmlns="http://www.w3.org/2000/svg" width="42" height="42" viewBox="0 0 42 42"><title>vip-ski-boots-2</title><path d="M41.37,37.19H41a2.11,2.11,0,0,0,.2-.89V33.49a7.58,7.58,0,0,0-5.12-7.13l.32-1.16a1.88,1.88,0,0,0-1.32-2.31l-1-.27a1.89,1.89,0,0,0-2.32,1.31l-.4,1.45-1.06-.2.37-1.32a1.88,1.88,0,0,0-1.32-2.31l-1-.27a1.89,1.89,0,0,0-2.32,1.31l-.47,1.69-1.88-.36V9.42h.87a1.71,1.71,0,0,0,1.72-1.71V5.06a1.71,1.71,0,0,0-1.72-1.71h-.87V2.14A2.15,2.15,0,0,0,21.63,0H4.91A2.15,2.15,0,0,0,2.76,2.14V3.35h-1A1.71,1.71,0,0,0,0,5.06V7.71A1.71,1.71,0,0,0,1.72,9.42h1v15a10.43,10.43,0,0,0,.07,1.22.62.62,0,0,0-.07.29V36.31a2.11,2.11,0,0,0,.26,1,.62.62,0,0,0-.26.5v2.48A1.71,1.71,0,0,0,4.48,42h35.8A1.71,1.71,0,0,0,42,40.29V37.82A.63.63,0,0,0,41.37,37.19ZM32,28.1l.51-1.82h0l.56-2a.62.62,0,0,1,.3-.38.63.63,0,0,1,.31-.08l.17,0,1,.27a.63.63,0,0,1,.44.77L34.16,28.7a.63.63,0,0,1-.78.44l-1-.27a.63.63,0,0,1-.38-.3A.62.62,0,0,1,32,28.1Zm-6.34,1,1.71-6.14a.62.62,0,0,1,.3-.38.63.63,0,0,1,.31-.08l.17,0,1,.27a.63.63,0,0,1,.44.77l-.54,2h0l-1.16,4.17a.64.64,0,0,1-.78.44l-1-.27A.63.63,0,0,1,25.64,29.07Zm-.31-3.58-.9,3.25A1.88,1.88,0,0,0,25.75,31l1,.27a1.88,1.88,0,0,0,1.43-.18A1.86,1.86,0,0,0,29,30l1-3.61,1.06.2-.33,1.18a1.85,1.85,0,0,0,.18,1.42,1.87,1.87,0,0,0,1.14.88l1,.27A1.89,1.89,0,0,0,35.37,29l.41-1.47A6.32,6.32,0,0,1,40,33.49v2.82a.89.89,0,0,1-.89.89H4.91A.89.89,0,0,1,4,36.31V29.38a10.52,10.52,0,0,0,19.74-4.2ZM17.69,11.54a2.15,2.15,0,0,0-2.15,2.14v.63a2.15,2.15,0,0,0,2.15,2.14h4.83v1.23H17.69a2.15,2.15,0,0,0-2.15,2.14v.63a2.15,2.15,0,0,0,2.15,2.14h4.83v1.86A9.25,9.25,0,0,1,4,24.44v-15H22.53v2.12H17.69Zm4.83,1.25V15.2H17.69a.89.89,0,0,1-.89-.89v-.63a.89.89,0,0,1,.89-.89h4.83Zm0,6.13v2.41H17.69a.89.89,0,0,1-.89-.89v-.63a.89.89,0,0,1,.89-.89h4.83ZM4,2.14a.89.89,0,0,1,.89-.89H21.63a.89.89,0,0,1,.89.89V3.35H4Zm-.63,6H1.72a.46.46,0,0,1-.46-.46V5.06a.46.46,0,0,1,.46-.46H24.66a.46.46,0,0,1,.46.46V7.71a.46.46,0,0,1-.46.46H3.39ZM40.74,40.29a.46.46,0,0,1-.46.46H4.48A.46.46,0,0,1,4,40.29V38.44H40.74v1.85Z" transform="translate(0 0)"/><path d="M13.27,25.86a2.29,2.29,0,1,0,2.3,2.29A2.3,2.3,0,0,0,13.27,25.86Zm0,3.33a1,1,0,1,1,1-1A1,1,0,0,1,13.27,29.18Z" transform="translate(0 0)"/><path d="M37.15,11.54a1.61,1.61,0,0,1,1.44-.81.86.86,0,0,0,1-.95,1.56,1.56,0,0,1,.83-1.4.84.84,0,0,0,.35-1.29,1.54,1.54,0,0,1,0-1.62.84.84,0,0,0-.35-1.29,1.56,1.56,0,0,1-.83-1.41.86.86,0,0,0-1-.94A1.61,1.61,0,0,1,37.15,1,.87.87,0,0,0,35.83.67a1.63,1.63,0,0,1-1.66,0A.87.87,0,0,0,32.85,1a1.61,1.61,0,0,1-1.44.81.86.86,0,0,0-1,.94,1.57,1.57,0,0,1-.83,1.41.84.84,0,0,0-.35,1.29,1.53,1.53,0,0,1,0,1.62.84.84,0,0,0,.35,1.29,1.56,1.56,0,0,1,.83,1.4.86.86,0,0,0,1,.95,1.61,1.61,0,0,1,1.44.81.87.87,0,0,0,1.32.34,1.64,1.64,0,0,1,1.66,0A.87.87,0,0,0,37.15,11.54ZM35,9.67a3.44,3.44,0,0,1-3.47-3.4,3.47,3.47,0,0,1,6.94,0A3.43,3.43,0,0,1,35,9.67Z" transform="translate(0 0)"/><path d="M31.36,11.22c-.67,0-.76-.3-.76-.3l-2.61,5,2.09-.23,1.16,1.7s2.41-4.91,2.41-4.88C32.4,12.49,32.9,11.26,31.36,11.22Z" transform="translate(0 0)"/><path d="M39.36,11.12c-1.9.19-1.52.66-2,1a1.36,1.36,0,0,1-1.13.42l2.94,4.95.72-1.83,2.05.26Z" transform="translate(0 0)"/><polygon points="35.73 5.52 35 4.08 34.27 5.52 32.65 5.76 33.82 6.88 33.55 8.46 35 7.72 36.46 8.46 36.18 6.88 37.35 5.76 35.73 5.52"/></svg>