<svg id="Слой_1" data-name="Слой 1" xmlns="http://www.w3.org/2000/svg" viewBox="0 0 15.81 38.14" fill="#9c9ca8" width="16px" height="42px">
<title>ski poles</title><path d="M15.61,36.82a.6.6,0,0,1-.64-.64V15.84a.64.64,0,0,1,1.27,0V36.19A.6.6,0,0,1,15.61,36.82Z" transform="translate(-13.07 -1.86)"/><path d="M16.88,38.73H14.34a1.28,1.28,0,0,1-1.27-1.27v-.64a1.28,1.28,0,0,1,1.27-1.27h2.54a1.28,1.28,0,0,1,1.27,1.27v.64A1.28,1.28,0,0,1,16.88,38.73Zm0-1.27v0Zm-2.54-.64v.64h2.54v-.64Z" transform="translate(-13.07 -1.86)"/><path d="M15.61,40a.6.6,0,0,1-.64-.64V38.09a.64.64,0,1,1,1.27,0v1.27A.6.6,0,0,1,15.61,40Z" transform="translate(-13.07 -1.86)"/><path d="M16.88,16.48H14.34a.6.6,0,0,1-.64-.64V3.76a1.91,1.91,0,1,1,3.81,0V15.84A.6.6,0,0,1,16.88,16.48ZM15,15.21h1.27V3.76a.64.64,0,1,0-1.27,0Z" transform="translate(-13.07 -1.86)"/><path d="M14.34,11.39a.58.58,0,0,1-.45-.19.61.61,0,0,1,0-.89l2.54-2.54a.63.63,0,0,1,.89.89L14.78,11.2A.58.58,0,0,1,14.34,11.39Z" transform="translate(-13.07 -1.86)"/><path d="M14.34,14.57a.58.58,0,0,1-.45-.19.61.61,0,0,1,0-.89l2.54-2.54a.63.63,0,0,1,.89.89l-2.54,2.54A.58.58,0,0,1,14.34,14.57Z" transform="translate(-13.07 -1.86)"/><path d="M16.25,30.46H15a.64.64,0,1,1,0-1.27h1.27a.64.64,0,0,1,0,1.27Z" transform="translate(-13.07 -1.86)"/><path d="M16.25,24.11H15a.64.64,0,1,1,0-1.27h1.27a.64.64,0,1,1,0,1.27Z" transform="translate(-13.07 -1.86)"/><path d="M26.33,36.82a.6.6,0,0,1-.64-.64V15.84a.64.64,0,0,1,1.27,0V36.19A.6.6,0,0,1,26.33,36.82Z" transform="translate(-13.07 -1.86)"/><path d="M27.61,38.73H25.06a1.28,1.28,0,0,1-1.27-1.27v-.64a1.28,1.28,0,0,1,1.27-1.27h2.54a1.28,1.28,0,0,1,1.27,1.27v.64A1.28,1.28,0,0,1,27.61,38.73Zm0-1.27v0Zm-2.54-.64v.64h2.54v-.64Z" transform="translate(-13.07 -1.86)"/><path d="M26.33,40a.6.6,0,0,1-.64-.64V38.09a.64.64,0,1,1,1.27,0v1.27A.6.6,0,0,1,26.33,40Z" transform="translate(-13.07 -1.86)"/><path d="M27.61,16.48H25.06a.6.6,0,0,1-.64-.64V3.76a1.91,1.91,0,1,1,3.81,0V15.84A.6.6,0,0,1,27.61,16.48ZM25.7,15.21H27V3.76a.64.64,0,1,0-1.27,0Z" transform="translate(-13.07 -1.86)"/><path d="M25.06,11.39a.58.58,0,0,1-.45-.19.61.61,0,0,1,0-.89l2.54-2.54a.63.63,0,1,1,.89.89L25.51,11.2A.58.58,0,0,1,25.06,11.39Z" transform="translate(-13.07 -1.86)"/><path d="M25.06,14.57a.58.58,0,0,1-.45-.19.61.61,0,0,1,0-.89l2.54-2.54a.63.63,0,1,1,.89.89l-2.54,2.54A.58.58,0,0,1,25.06,14.57Z" transform="translate(-13.07 -1.86)"/><path d="M27,30.46H25.7a.64.64,0,0,1,0-1.27H27a.64.64,0,0,1,0,1.27Z" transform="translate(-13.07 -1.86)"/><path d="M27,24.11H25.7a.64.64,0,1,1,0-1.27H27a.64.64,0,1,1,0,1.27Z" transform="translate(-13.07 -1.86)"/></svg>