<svg id="Слой_1" data-name="Слой 1" xmlns="http://www.w3.org/2000/svg" viewBox="0 0 18 38" fill="#9c9ca8" width="20px" height="42px">
<title>ski</title><path d="M15.86,40A3.84,3.84,0,0,1,12,36.2V5.8a3.86,3.86,0,0,1,7.71,0V36.2A3.84,3.84,0,0,1,15.86,40Zm0-36.73A2.56,2.56,0,0,0,13.29,5.8V36.2a2.57,2.57,0,0,0,5.14,0V5.8A2.56,2.56,0,0,0,15.86,3.27Z" transform="translate(-12 -2)"/><path d="M16.5,28H15.21a1.28,1.28,0,0,1-1.29-1.27V22.27a1.93,1.93,0,0,1,3.86,0V26.7A1.28,1.28,0,0,1,16.5,28Zm-.64-6.33a.6.6,0,0,0-.64.63V26.7H16.5V22.27A.6.6,0,0,0,15.86,21.63Z" transform="translate(-12 -2)"/><path d="M12.64,18.28a.39.39,0,0,1-.26-.06.61.61,0,0,1-.39-.57V14a.57.57,0,0,1,.19-.44l6.43-6.33a.59.59,0,0,1,.71-.13.55.55,0,0,1,.39.57v3.61a.57.57,0,0,1-.19.44l-6.43,6.33A.59.59,0,0,1,12.64,18.28Zm.64-4v1.77L18.43,11V9.22Z" transform="translate(-12 -2)"/><path d="M12.64,14.67a.39.39,0,0,1-.26-.06A.55.55,0,0,1,12,14V10.42a.57.57,0,0,1,.19-.44L18.3,4a.91.91,0,0,1,.58-.19.68.68,0,0,1,.45.38,3.65,3.65,0,0,1,.39,1.65V7.7a.57.57,0,0,1-.19.44l-6.43,6.33A.59.59,0,0,1,12.64,14.67Zm.64-3.93v1.77l5.14-5.07V5.67Z" transform="translate(-12 -2)"/><path d="M15.86,38.1a1.88,1.88,0,0,1-1.93-1.9V31.13a.64.64,0,0,1,1.29,0V36.2a.6.6,0,0,0,.64.63.63.63,0,1,1,0,1.27Z" transform="translate(-12 -2)"/><path d="M26.14,40a3.84,3.84,0,0,1-3.86-3.8V5.8A3.86,3.86,0,0,1,30,5.8V36.2A3.84,3.84,0,0,1,26.14,40Zm0-36.73A2.56,2.56,0,0,0,23.57,5.8V36.2a2.57,2.57,0,0,0,5.14,0V5.8A2.56,2.56,0,0,0,26.14,3.27Z" transform="translate(-12 -2)"/><path d="M26.79,28H25.5a1.28,1.28,0,0,1-1.29-1.27V22.27a1.93,1.93,0,0,1,3.86,0V26.7A1.28,1.28,0,0,1,26.79,28Zm-.64-6.33a.6.6,0,0,0-.64.63V26.7h1.29V22.27A.6.6,0,0,0,26.14,21.63Z" transform="translate(-12 -2)"/><path d="M22.93,18.28a.39.39,0,0,1-.26-.06.61.61,0,0,1-.39-.57V14a.57.57,0,0,1,.19-.44l6.43-6.33a.59.59,0,0,1,.71-.13A.55.55,0,0,1,30,7.7v3.61a.57.57,0,0,1-.19.44l-6.43,6.33A.59.59,0,0,1,22.93,18.28Zm.64-4v1.77L28.71,11V9.22Z" transform="translate(-12 -2)"/><path d="M22.93,14.67a.39.39,0,0,1-.26-.06.55.55,0,0,1-.39-.57V10.42a.57.57,0,0,1,.19-.44l6.11-6a.91.91,0,0,1,.58-.19.68.68,0,0,1,.45.38A3.85,3.85,0,0,1,30,5.8V7.7a.57.57,0,0,1-.19.44l-6.43,6.33A.59.59,0,0,1,22.93,14.67Zm.64-3.93v1.77l5.14-5.07V5.67Z" transform="translate(-12 -2)"/><path d="M26.14,38.1a1.88,1.88,0,0,1-1.93-1.9V31.13a.64.64,0,0,1,1.29,0V36.2a.6.6,0,0,0,.64.63.63.63,0,1,1,0,1.27Z" transform="translate(-12 -2)"/></svg>